<?xml version="1.0" encoding="UTF-8"?>
<svg id="Camada_1" data-name="Camada 1" xmlns="http://www.w3.org/2000/svg" xmlns:xlink="http://www.w3.org/1999/xlink" viewBox="0 0 652.94 590.4">
  <defs>
    <style>
      .cls-1 {
        fill: #fdc99b;
      }

      .cls-1, .cls-2, .cls-3, .cls-4, .cls-5, .cls-6, .cls-7, .cls-8, .cls-9, .cls-10, .cls-11, .cls-12, .cls-13, .cls-14, .cls-15, .cls-16, .cls-17, .cls-18, .cls-19, .cls-20, .cls-21, .cls-22, .cls-23, .cls-24, .cls-25, .cls-26, .cls-27, .cls-28, .cls-29, .cls-30, .cls-31 {
        stroke-width: 0px;
      }

      .cls-2 {
        fill: #fcc69f;
      }

      .cls-3 {
        fill: #060035;
      }

      .cls-4 {
        fill: #fcc8a0;
      }

      .cls-5 {
        fill: #c5a45a;
      }

      .cls-6 {
        fill: #fcc69b;
      }

      .cls-32 {
        stroke: #f05f0b;
        stroke-width: 2.04px;
      }

      .cls-32, .cls-14, .cls-33, .cls-34, .cls-35 {
        fill: none;
      }

      .cls-32, .cls-33, .cls-34, .cls-35 {
        stroke-miterlimit: 10;
      }

      .cls-7 {
        fill: #e4ecce;
      }

      .cls-8 {
        fill: #6774a3;
      }

      .cls-9 {
        fill: #ffc49b;
      }

      .cls-10 {
        fill: #170830;
      }

      .cls-11 {
        fill: #11032b;
      }

      .cls-12 {
        fill: #a47938;
      }

      .cls-13 {
        fill: #f9f5d8;
      }

      .cls-15 {
        opacity: .2;
      }

      .cls-16 {
        fill: #0c032e;
      }

      .cls-33 {
        stroke: #1b9d85;
      }

      .cls-33, .cls-34 {
        stroke-linecap: round;
        stroke-width: .46px;
      }

      .cls-17 {
        fill: #fff;
      }

      .cls-34 {
        stroke: #95356f;
      }

      .cls-18 {
        fill: url(#Gradiente_sem_nome_38);
      }

      .cls-36 {
        clip-path: url(#clippath);
      }

      .cls-19 {
        fill: #d57c59;
      }

      .cls-20 {
        fill: #1b9d85;
      }

      .cls-21 {
        fill: #832506;
      }

      .cls-22 {
        fill: #14002e;
      }

      .cls-23 {
        fill: #f26e00;
      }

      .cls-24 {
        fill: #110333;
      }

      .cls-25 {
        fill: #f05f0b;
      }

      .cls-26 {
        fill: #d8714d;
      }

      .cls-27 {
        fill: #d7822c;
      }

      .cls-28 {
        fill: #b50d0d;
      }

      .cls-35 {
        stroke: #fff;
        stroke-width: 18.47px;
      }

      .cls-29 {
        fill: #fcc79e;
      }

      .cls-30 {
        fill: #eba7ab;
      }

      .cls-31 {
        fill: #f97c50;
      }
    </style>
    <clipPath id="clippath">
      <circle class="cls-14" cx="340.28" cy="229.44" r="152.7"/>
    </clipPath>
    <linearGradient id="Gradiente_sem_nome_38" data-name="Gradiente sem nome 38" x1="278.18" y1="326.08" x2="439.61" y2="326.08" gradientUnits="userSpaceOnUse">
      <stop offset="0" stop-color="#b50d0d"/>
      <stop offset="1" stop-color="#630001"/>
    </linearGradient>
  </defs>
  <path class="cls-35" d="m174.87,221.42c-24.12,6.93-44.72,3.57-57.96-21.38-10.08.56-19.1,2.88-26.74,7.53-13.49,9.24-21.17,9.02-20.01-4.63,2.28-15.85,21.58-27.13,42.22-27.1.93-10.74-3.62-17.29-16.59-17.43-14.74.97-28.6,7.73-32.09,1.88-2.53-6.88,13.39-19.91,27.36-23.73,24.75-5.51,40.37,7.51,42.72,14.6,7.62,15.94-11,47.07,29.74,39.8,6.54-1.17,15.34-3.78,24.07-9.44l36.86-32.12-18.19,71.07-31.39.96Z"/>
  <rect class="cls-17" x="150.67" y="246.14" width="44.59" height="33.72" rx="8.93" ry="8.93"/>
  <circle class="cls-17" cx="340.28" cy="229.44" r="164.14"/>
  <g>
    <circle class="cls-20" cx="340.28" cy="229.44" r="152.62"/>
    <g class="cls-36">
      <g>
        <rect class="cls-10" x="403.35" y="383.64" width="111.14" height="53.96"/>
        <rect class="cls-10" x="500.36" y="422.38" width="13.65" height="132.54"/>
        <g>
          <circle class="cls-11" cx="507.19" cy="564.47" r="26.01"/>
          <circle class="cls-27" cx="508.27" cy="564.47" r="12.03"/>
          <circle class="cls-3" cx="507.83" cy="564.47" r="5.04"/>
          <path class="cls-34" d="m481.21,565.84c0-36.51,51.98-36.51,51.98,0"/>
        </g>
        <g>
          <circle class="cls-22" cx="309.41" cy="466.43" r="99.33"/>
          <circle class="cls-20" cx="311.07" cy="466.8" r="83.39"/>
          <ellipse class="cls-31" cx="327.16" cy="467.31" rx="53.52" ry="62.3"/>
          <polygon class="cls-16" points="305.75 480.07 271.17 505.46 273.64 508.89 309.32 483.5 305.75 480.07"/>
          <polygon class="cls-16" points="342.87 480.07 371.95 501.42 369.32 505.67 339.3 483.5 342.87 480.07"/>
          <polygon class="cls-16" points="341.61 455.05 375.5 440.56 377.2 445.15 342.8 459.86 341.61 455.05"/>
          <polygon class="cls-16" points="308.69 451.69 274.36 425.96 271.8 429.32 306.44 456.1 308.69 451.69"/>
          <polygon class="cls-16" points="327.07 443.82 326.43 396.15 321.73 396.17 321.67 444.83 327.07 443.82"/>
          <polygon class="cls-16" points="327.07 489.78 326.43 537.45 321.73 537.43 321.67 488.77 327.07 489.78"/>
        </g>
        <path class="cls-10" d="m409.68,346.93h76.27c15.78,0,27.47,9.51,30.74,25.32l43.99,176.21-13.59,4.08-29.68-112.1h-95.06l-19-20.6h108.73l-8.36-39.19c-1.54-8.84-7.08-14.03-21.32-13.54h-72.72v-20.17Z"/>
        <path class="cls-4" d="m456.97,428.58c11.09,36.16,19.04,79.21,22.55,120.8l26.8-18.59c-3.07-45.53-10.44-85.67-25.22-120.17-12.3,2.43-20.95,7.92-24.14,17.96Z"/>
        <rect class="cls-10" x="430.46" y="563.47" width="142.82" height="18.01" rx="5.8" ry="5.8" transform="translate(-133.53 153.11) rotate(-15.34)"/>
        <path class="cls-31" d="m502.86,525.78c-12.54,9.08-8.5,20.6-25.5,20.03l6.4,19.96,58.12-16.79c-7.1-12.87-15.96-18.56-31.02-15.27-1.26-4.37-4.11-6.79-8-7.92Z"/>
        <path class="cls-26" d="m456.97,428.58c3.24-10.39,12.21-15.52,24.14-17.96l1.97,4.73-25.09,16.59-1.01-3.35Z"/>
        <g>
          <path class="cls-4" d="m425.24,421.67c-.91.32-1.81.62-2.67.95.87-.35,1.76-.65,2.67-.95Z"/>
          <path class="cls-4" d="m464.82,548.46l-25.22,15.32-37.46-116.96-1.73-5.09c2.78-9.84,12.48-15.1,21.47-18.84,1.43.33,2.84.67,4.23,1.02h.01c.06.16.11.3.17.45,18.88,48.03,33.07,93.13,38.52,124.1Z"/>
          <path class="cls-26" d="m426.31,424.36h-.01c-7.47,5.9-16.12,13.32-22.69,22.47l-1.12-3.66-.5-2.83c2.56-9.54,10.51-13.94,19.84-17.46.15-.06.29-.11.44-.16-.14.05-.27.1-.4.17,1.43.33,2.84.67,4.23,1.02-.28-.74-.59-1.49-.88-2.25l.89,2.25.18.45Z"/>
        </g>
        <g>
          <rect class="cls-10" x="158.92" y="253.99" width="48.37" height="18.01" rx="5.8" ry="5.8"/>
          <path class="cls-10" d="m199.13,253.99c14.79-.16,24.94,5.59,29.85,18.01h96.94s-24.46,76.73-24.46,76.73v31.43c-21.14-11.02-47.07-10.34-74.75-5.38l-9.9-92.79c-.77-7.29-7.12-10.42-18.52-9.99l.85-18.01Z"/>
        </g>
        <polygon class="cls-9" points="342.73 255.87 342.73 266.05 334.93 269.77 346.45 290.09 377.79 286.05 380.1 269.19 374.41 266.05 374.41 253.92 342.73 255.87"/>
        <path class="cls-25" d="m342.73,262.71c11.66-1.06,22.66-3.01,26.64-8.48l-26.64,1.64v6.84Z"/>
        <path class="cls-18" d="m342.73,266.05c-26.52.45-49.66,18.54-64.55,46.49,13.4-.33,23.11,3.11,27.86,11.62v4.61s-4.9,38.33-4.9,38.33v19.02h111.62l-3.38-71.51,14.37,9.96,15.86-21.44c-19.4-21.06-39.19-32.87-65.2-37.08,11.82,27.64-40.34,24.69-31.68,0Z"/>
        <path class="cls-10" d="m306,324.17c10.78-9.68,19.12-22.14,25.47-36.82-3.06,15.88-12.21,31.52-26.14,46.96.45-3.89.77-7.79.67-10.15Z"/>
        <path class="cls-10" d="m403.06,289.87c3.36,8.84,5.71,17.2,6.32,24.74l3.47,2.41c-1.72-9.92-4.99-18.96-9.79-27.14Z"/>
        <path class="cls-2" d="m423.75,324.57c17.14,12.75,33.76,21.31,49.29,21.21h41.64c-2.41,11.72,2.84,28.08,23.63,25.11,16.05-1.52,16.81-27.37,1.3-36.2-12.48-7.45-31.5-9.23-53.74-10.11-15.65-1.06-31.01-9.59-46.25-21.44l-15.86,21.44Z"/>
        <polygon class="cls-19" points="423.48 324.38 439.41 302.89 442.65 305.44 424.84 325.37 423.48 324.38"/>
        <path class="cls-17" d="m249.57,159.62c-.78-94.73,110.41-126.25,166.25-57.61l-166.25,57.61Z"/>
        <ellipse class="cls-6" cx="345.88" cy="163.82" rx="92.64" ry="97.06" transform="translate(51.72 408.65) rotate(-65.11)"/>
        <path class="cls-12" d="m71.54,213.14c5.4,8.21,23.21-15.3,45.38-13.1l-4.53-24.21c-23.41-.87-49.8,21.68-40.85,37.31Z"/>
        <ellipse class="cls-1" cx="439.98" cy="178.42" rx="17.09" ry="13.51" transform="translate(132.39 540.09) rotate(-71.69)"/>
        <ellipse class="cls-10" cx="318.81" cy="180" rx="6.44" ry="9.02" transform="translate(-34.89 85.45) rotate(-14.48)"/>
        <ellipse class="cls-10" cx="395.16" cy="158.98" rx="6.44" ry="9.02" transform="translate(-27.2 103.88) rotate(-14.48)"/>
        <path class="cls-10" d="m340.62,196.89c4.2,42.25,67.24,31.7,45.82-12.01-10.66,12.1-30.91,17.03-45.82,12.01Z"/>
        <path class="cls-23" d="m387.68,213.41c-5.94,9.48-18.12,13.13-29.16,8.64,1.39-14.53,18.87-17.7,29.16-8.64Z"/>
        <path class="cls-32" d="m359.93,168.55c-1.05,3.82,1.44,7.36,5.82,10.76,6.96,4.56,1.98,8.84-6.78,10.37"/>
        <polygon class="cls-20" points="412.95 426.18 304.79 446.83 304.79 385.64 412.95 385.64 412.95 426.18"/>
        <path class="cls-26" d="m426.12,423.91c-1.39-.35-2.8-.69-4.23-1.02.12-.07.26-.12.4-.17.09-.05.19-.08.28-.11.87-.33,1.76-.63,2.67-.95.29.76.6,1.5.88,2.25Z"/>
        <path class="cls-20" d="m453.73,398.03l-1.15,34.63c-7.76-5.17-16.58-9.61-26.44-8.75h-.01c-.28-.74-.59-1.49-.88-2.25-.91.32-1.81.62-2.67.95-.09.03-.19.07-.28.11-.14.05-.27.1-.4.17-.01-.01-.02-.01-.05-.01-2.89-.68-5.86-1.3-8.89-1.9v-24.4c14.84-.46,28.74-.21,40.78,1.44Z"/>
        <path class="cls-8" d="m453.73,398.03c9.78.83,18.97,4.7,27.38,12.58-10.79,6.83-20.39,14.14-28.53,22.05-12.97-13.18-13.38-28.74,1.15-34.63Z"/>
        <path class="cls-8" d="m401.04,412.73v34.34c7.46-12.62,17.99-24.07,29.78-26.94-4.84-7.05-15.2-9.12-29.78-7.4Z"/>
        <polygon class="cls-10" points="358 447.6 388.36 447.6 432.84 587.37 445.99 581.69 402 441.45 402 395.77 318.4 395.77 318.4 446.93 358 447.6"/>
        <g>
          <ellipse class="cls-20" cx="256.18" cy="483.72" rx="107.58" ry="116.04"/>
          <ellipse class="cls-16" cx="253.02" cy="486.98" rx="104.42" ry="113.16"/>
          <ellipse class="cls-20" cx="253.73" cy="486.22" rx="86.88" ry="97.21"/>
          <ellipse class="cls-31" cx="258.49" cy="485.25" rx="74.93" ry="87.22"/>
          <polygon class="cls-16" points="228.52 503.12 180.11 538.66 183.56 543.46 233.51 507.92 228.52 503.12"/>
          <polygon class="cls-16" points="280.49 503.12 328.9 538.66 325.44 543.46 275.49 507.92 280.49 503.12"/>
          <polygon class="cls-16" points="232.63 463.39 184.58 427.36 180.99 432.07 229.49 469.56 232.63 463.39"/>
          <polygon class="cls-16" points="276.37 463.39 324.43 427.36 328.02 432.07 279.52 469.56 276.37 463.39"/>
          <polygon class="cls-16" points="258.37 452.37 257.47 385.64 250.89 385.67 250.8 453.79 258.37 452.37"/>
          <polygon class="cls-16" points="258.37 516.72 257.47 583.45 250.89 583.42 250.8 515.3 258.37 516.72"/>
          <circle class="cls-13" cx="255.22" cy="484.29" r="32.47"/>
          <circle class="cls-24" cx="254.17" cy="484.96" r="10.28"/>
          <path class="cls-30" d="m206.81,404.39c-56.52,39.38-55.31,108.93-12.62,152.62-40.43-59.06-33.31-110.61,12.62-152.62Z"/>
        </g>
        <path class="cls-10" d="m388.03,395.77c3.3-16.14-1.37-28.88-14.12-28.67h-77.67v-18.37h81.43c23.15,5.31,26.74,24.12,24.34,47.04h-13.4"/>
        <path class="cls-29" d="m280.6,312.52c-6.93,12.79-12.39,25.22-11.81,36.21h102.09c5.67.62,10.44,2.44,12.39,6.56,8.47,22.22,39.95,20.37,34-3.46-1.15-3.72-3.59-7.45-6.67-11.24-10.51-9.58-31.33-9.79-44.77-10.66l-66.71-1.15,4.21-8.37c-5.17-7.55-13.33-10.59-22.73-7.88Z"/>
        <path class="cls-31" d="m463.52,536.69c-12.54,9.08-8.5,20.6-25.5,20.03l6.4,19.96,60.6-17.51c-5.32-14.25-16.18-19.59-33.5-14.55-1.26-4.37-4.11-6.79-8-7.92Z"/>
        <path class="cls-21" d="m522.24,533.02c11.42.13,20.46,9.87,21.05,15.55l-2.82.8c-1.38-5.41-10.72-14.64-18.23-16.35Z"/>
        <polygon class="cls-7" points="482.69 565.02 484.4 570.44 544.66 553.39 543.13 547.86 482.69 565.02"/>
        <polygon class="cls-15" points="504.05 558.97 505.64 564.47 507.98 563.81 506.17 558.37 504.05 558.97"/>
        <polygon class="cls-7" points="444.15 575.83 445.88 581.34 506.48 564.2 504.78 558.76 444.15 575.83"/>
        <path class="cls-25" d="m258.92,195.39l2.16,2.56c48.39-49.81,107.52-75.04,173.25-67.95l-2.43-5.39c-67.93-11.01-128.61,10.88-172.98,70.78Z"/>
        <path class="cls-5" d="m414.68,100.82c4.08,3.83,13.27,13.59,17.74,25.01-64.08-4.74-124.15,17.28-173.35,72.41-17.8-16.42-40.44-9.33-66.28,13.26-31.11,25.65-82.22,12.12-80.4-35.65.02-.63.06-1.26.1-1.91,3.63-32.49-53.78-1.41-48.43-16.81,8.42-22.43,42.03-27.42,62.45-14.5,24.97,16.25-14.38,61.01,46.11,46.47,11.55-3.85,16.74-9.14,22.67-13.14,19.45-13.09,42.94-10.79,55.71-3.65,46.94-49.11,101-72.12,163.68-71.48Z"/>
        <ellipse class="cls-1" cx="262.23" cy="214.29" rx="21.61" ry="18.9"/>
        <path class="cls-32" d="m259.45,202.94c-21.74,1.98-12.76,29.65,8.69,22.96"/>
        <rect class="cls-10" x="388.35" y="431.93" width="13.65" height="132.54"/>
        <g>
          <circle class="cls-11" cx="394.46" cy="591.77" r="26.01"/>
          <circle class="cls-27" cx="395.55" cy="591.77" r="12.03"/>
          <circle class="cls-3" cx="395.11" cy="591.77" r="5.04"/>
          <path class="cls-33" d="m368.49,593.14c0-36.51,51.98-36.51,51.98,0"/>
        </g>
        <path class="cls-21" d="m483.77,542.77c11.33-1.51,20.5,9.23,21.05,15.98l-2.82.79c-.45-6.48-9.57-16.38-18.23-16.77Z"/>
      </g>
    </g>
  </g>
  <path class="cls-31" d="m342.73,262.71c11.66-1.06,22.66-3.01,26.64-8.48l-26.64,1.64v6.84Z"/>
  <path class="cls-17" d="m249.57,159.62c-.78-94.73,110.41-126.25,166.25-57.61l-166.25,57.61Z"/>
  <ellipse class="cls-6" cx="345.88" cy="163.82" rx="92.64" ry="97.06" transform="translate(51.72 408.65) rotate(-65.11)"/>
  <path class="cls-12" d="m71.54,213.14c5.4,8.21,23.21-15.3,45.38-13.1l-4.53-24.21c-23.41-.87-49.8,21.68-40.85,37.31Z"/>
  <ellipse class="cls-1" cx="439.98" cy="178.42" rx="17.09" ry="13.51" transform="translate(132.39 540.09) rotate(-71.69)"/>
  <ellipse class="cls-10" cx="318.81" cy="180" rx="6.44" ry="9.02" transform="translate(-34.89 85.45) rotate(-14.48)"/>
  <ellipse class="cls-10" cx="395.16" cy="158.98" rx="6.44" ry="9.02" transform="translate(-27.2 103.88) rotate(-14.48)"/>
  <path class="cls-10" d="m340.62,196.89c4.2,42.25,67.24,31.7,45.82-12.01-10.66,12.1-30.91,17.03-45.82,12.01Z"/>
  <path class="cls-31" d="m387.68,213.41c-5.94,9.48-18.12,13.13-29.16,8.64,1.39-14.53,18.87-17.7,29.16-8.64Z"/>
  <path class="cls-32" d="m359.93,168.55c-1.05,3.82,1.44,7.36,5.82,10.76,6.96,4.56,1.98,8.84-6.78,10.37"/>
  <path class="cls-31" d="m258.92,195.39l2.16,2.56c48.39-49.81,107.52-75.04,173.25-67.95l-2.43-5.39c-67.93-11.01-128.61,10.88-172.98,70.78Z"/>
  <path class="cls-5" d="m414.68,100.82c4.08,3.83,13.27,13.59,17.74,25.01-64.08-4.74-124.15,17.28-173.35,72.41-17.8-16.42-40.44-9.33-66.28,13.26-31.11,25.65-82.22,12.12-80.4-35.65.02-.63.06-1.26.1-1.91,3.63-32.49-53.78-1.41-48.43-16.81,8.42-22.43,42.03-27.42,62.45-14.5,24.97,16.25-14.38,61.01,46.11,46.47,11.55-3.85,16.74-9.14,22.67-13.14,19.45-13.09,42.94-10.79,55.71-3.65,46.94-49.11,101-72.12,163.68-71.48Z"/>
  <ellipse class="cls-1" cx="262.23" cy="214.29" rx="21.61" ry="18.9"/>
  <path class="cls-32" d="m259.45,202.94c-21.74,1.98-12.76,29.65,8.69,22.96"/>
  <path class="cls-28" d="m461.93,254.32h0c0-.12,0-.25,0-.37,0-4.98-4.2-9.3-9.38-9.3-3.79,0-7.05,3.12-8.53,6.23h0c-1.48-3.11-4.74-6.23-8.53-6.23-5.18,0-9.38,4.32-9.38,9.3,0,.12,0,.25,0,.37h0s-.53,5.92,6.06,12.38c2.99,3,6.34,5.85,11.86,10.33,5.51-4.48,8.86-7.33,11.86-10.33,6.59-6.46,6.06-12.38,6.06-12.38Z"/>
  <path class="cls-31" d="m342.73,266.05l-.51,1.94c-9.37-.62-26.01,4.74-34.28,9.67,8.4-6.19,24.04-12.37,34.78-11.61Z"/>
  <path class="cls-31" d="m374.41,266.05l.91,2.41c8.49.58,27.37,5.81,36.09,10.95-5.8-4.01-21.98-11.36-37-13.36Z"/>
  <rect class="cls-10" x="158.92" y="253.99" width="48.37" height="18.01" rx="5.8" ry="5.8"/>
  <g>
    <path class="cls-17" d="m217.42,433.45c0,8.52-4.54,16.61-12.75,19.65-1.06.37-3.36,1.06-4.48,1.06-.75,0-.93-.06-.93.87,0,2.99.06,6.09.19,9.08.06,1.24.31,2.49.31,3.73,0,3.36-2.36,4.6-5.41,4.6-1.12,0-2.18-.31-3.11-.87-1.55-.99-1.55-2.43-1.62-4.1-.19-4.48-.31-8.96-.31-13.43,0-1.43-1.24-2.55-1.24-3.92s1.24-1.99,1.24-3.42c0-6.84.19-13.68.19-20.52,0-1.24-.19-2.61.37-3.73.81-1.62,2.92-2.3,4.6-2.3,1.12,0,2.18.44,3.3.44,1.55,0,4.23-.93,6.59-.93,8.4,0,13.06,5.6,13.06,13.81Zm-16.86,13.31c4.73-1.99,7.03-7.9,7.03-12.69,0-2.61-.75-7.34-4.11-7.34-1.18,0-4.11.56-4.11,1.99,0,2.55-.12,5.16-.12,7.71v9.33c0,.5.31,1.12.87,1.12.19,0,.31-.06.43-.12Z"/>
    <path class="cls-17" d="m260.96,440.6c0,10.26-9.45,20.21-19.84,20.21-8.96,0-15.3-7.09-15.3-15.86,0-10.01,7.77-18.97,18.1-18.97,7.71,0,17.04,5.72,17.04,14.62Zm-10.2.31c0-3.67-4.04-9.58-8.96-7.15-3.86,1.8-5.91,7.46-5.91,11.44,0,2.99,1.74,8.4,5.41,8.4,5.1,0,9.45-8.21,9.45-12.69Z"/>
    <path class="cls-17" d="m280.19,424.24c7.03,0,16.05,3.48,16.05,11.75,0,5.47-4.42,8.02-8.96,9.58-.31.12-.75.25-.75.62,0,1,6.9,5.97,8.02,6.72,1.37.87,3.86,1.68,3.86,3.86,0,2.3-2.43,3.73-4.48,3.73-5.41,0-13.25-8.27-14.18-8.27-.37,0-.37.5-.37.75,0,1,.19,1.99.19,2.99,0,3.55-1.37,5.54-5.16,5.54-3.23,0-5.04-1.37-5.04-4.66,0-6.09.06-12.19.06-18.28,0-4.98-.5-12.56,2.68-13.75,1.12-.43,5.6-.56,8.08-.56Zm.56,7.15c-1.99,0-1.87,1.55-1.87,3.05s-.12,2.92-.12,4.35c0,.75,1.12.56,1.68.56,2.18,0,5.78-.43,5.78-3.36,0-2.74-2.99-4.6-5.47-4.6Z"/>
    <path class="cls-17" d="m343.01,426.61c7.03,6.41,9.02,19.16,12.13,27.8.25.75.5,1.55.5,2.36,0,2.8-2.36,4.23-4.98,4.23-5.29,0-5.1-3.86-6.03-7.77-.25-.99-.5-1.99-.81-2.92-.12-.44-.19-.81-.75-.81-2.61,0-5.29.06-7.9.06-.37,0-.68-.06-1-.06-.5,0-.62.25-.75.68-.25,1.12-.5,2.18-.75,3.3-.81,3.67.37,8.21-5.47,8.21-2.18,0-4.85-.93-4.85-3.54,0-5.91,2.05-11.88,3.73-17.48.93-3.17,1.93-6.41,2.86-9.58.62-2.11.75-5.47,2.74-6.78,1.06-.68,2.3-.99,3.55-.99,2.74,0,5.78,1.43,7.77,3.3Zm-5.47,9.14c-.19.56-1.68,5.66-1.68,5.85,0,.62.5,1,1.06,1h3.17c.56,0,1-.37,1-.93,0-.75-1.99-5.16-2.49-6.03-.12-.19-.25-.5-.5-.5-.31,0-.5.37-.56.62Z"/>
    <path class="cls-17" d="m409.07,424.56c0,7.21-.12,14.49.19,21.71.06,1.74,0,3.55.37,5.22.25,1.12,1.12,2.18,1.12,3.3,0,2.49-3.3,3.98-5.41,3.98-6.34,0-5.72-7.15-5.91-11.57-.12-3.11-.06-6.28-.25-9.39,0-.19,0-.68-.31-.68-.81,0-4.66,8.58-10.39,8.58-4.79,0-10.45-9.52-12.13-9.52-.87,0-1.06,3.23-1.12,3.92-.68,6.47-1.12,12.81-1.12,19.28,0,3.42-1.43,5.1-4.98,5.1s-5.1-1.74-5.1-5.16c0-5.1,1.55-30.35,4.54-33.15.93-.87,2.18-1.24,3.42-1.24,4.42,0,10.51,4.66,13.43,7.84.75.81,1.68,2.43,2.86,2.43,2.74,0,9.08-15.42,16.05-15.42,3.11,0,4.73,1.74,4.73,4.79Z"/>
    <path class="cls-17" d="m454.29,440.6c0,10.26-9.45,20.21-19.84,20.21-8.96,0-15.3-7.09-15.3-15.86,0-10.01,7.77-18.97,18.1-18.97,7.71,0,17.04,5.72,17.04,14.62Zm-10.2.31c0-3.67-4.04-9.58-8.96-7.15-3.86,1.8-5.91,7.46-5.91,11.44,0,2.99,1.74,8.4,5.41,8.4,5.1,0,9.45-8.21,9.45-12.69Z"/>
    <path class="cls-17" d="m473.51,424.24c7.03,0,16.05,3.48,16.05,11.75,0,5.47-4.42,8.02-8.96,9.58-.31.12-.75.25-.75.62,0,1,6.9,5.97,8.02,6.72,1.37.87,3.86,1.68,3.86,3.86,0,2.3-2.43,3.73-4.48,3.73-5.41,0-13.25-8.27-14.18-8.27-.37,0-.37.5-.37.75,0,1,.19,1.99.19,2.99,0,3.55-1.37,5.54-5.16,5.54-3.23,0-5.04-1.37-5.04-4.66,0-6.09.06-12.19.06-18.28,0-4.98-.5-12.56,2.68-13.75,1.12-.43,5.6-.56,8.08-.56Zm.56,7.15c-1.99,0-1.87,1.55-1.87,3.05s-.12,2.92-.12,4.35c0,.75,1.12.56,1.68.56,2.18,0,5.78-.43,5.78-3.36,0-2.74-2.99-4.6-5.47-4.6Z"/>
    <path class="cls-17" d="m198.64,479.73c12,0,19.47,9.76,19.47,21.27s-7.53,20.83-19.41,20.83c-1.43,0-2.92-.12-4.35-.43-2.49-.56-4.04-1.55-4.29-4.29-.25-2.99-.56-5.91-.87-8.89-.5-4.48-1.12-8.89-1.12-13.43,0-2.18.12-5.22.81-7.34.19-.5.37-.81.37-1.31,0-.81-.5-1.43-.5-2.24,0-3.42,7.4-4.17,9.89-4.17Zm2.74,34.83c5.16-2.11,6.9-8.52,6.9-13.62,0-4.48-1.31-9.76-5.04-12.63-.87-.68-1.93-1.24-3.05-1.43-.56.25-1.37.93-1.62,1.55-.62,1.62-.68,3.79-.68,5.47,0,6.59.93,13.06,1.68,19.59.06.56.31,1.31,1,1.31.12,0,.68-.19.81-.25Z"/>
    <path class="cls-17" d="m243.98,486.5c-1.62,0-3.17-.12-4.79-.12-.87,0-1.37.44-1.43,1.31-.12,1.24-.06,2.49-.12,3.73-.06,1.43-.19,2.92-.19,4.35,0,.5.19,1,.75,1,.75,0,3.48-1.93,5.91-1.93,2.05,0,4.79,1.12,4.79,3.55,0,3.54-7.9,5.35-10.64,6.16-.62.19-.99.81-.99,1.43,0,3.61.31,7.15.68,10.76.06.68-.19,1.49.81,1.49,1.37,0,2.8-.37,4.17-.37,2.12,0,5.16.93,5.16,3.55,0,3.79-6.59,3.92-9.2,3.92s-7.9,0-9.58-2.24c-.87-1.18-.81-3.17-1-4.6-.56-4.6-.87-9.21-.87-13.87,0-6.47.37-12.87.43-19.34.06-2.99.19-5.54,3.55-5.72,3.86-.19,4.85-.12,10.01-.12,1.74,0,3.48-.06,5.16.62,1.24.5,2.36,1.62,2.36,3.05,0,2.43-2.99,3.42-4.97,3.42Z"/>
    <path class="cls-17" d="m312.9,484.45c2.24,6.66,4.54,19.4,6.9,28.42.56,2.05,1.8,2.36,1.8,5.04,0,3.23-1.99,4.6-5.04,4.6-3.36,0-4.29-1.24-5.16-3.98-1.99-6.53-3.3-14.49-5.16-20.9-.19-.56-.62-.87-.87-.06-1.37,2.99-1.99,5.91-3.42,9.2-.75,1.74-2.36,2.11-4.17,2.11-.37,0-.68,0-1.06-.06-3.05-.5-3.98-3.17-5.29-5.6-1.43-2.61-2.61-5.41-4.04-8.09-.25-.5-.87-.68-.87.12-.25,1.43-.31,2.92-.43,4.35-.31,3.61-.75,6.84-1.06,10.39-.25,2.61-.62,5.16-1.24,7.71-.37,1.49-.68,2.61-2.18,3.36-.87.43-1.87.62-2.8.62-2.12,0-4.98-.99-4.98-3.48,0-.31.06-.62.12-.93.62-2.24.93-4.35,1.18-6.66.75-8.08,1.99-22.26,5.35-28.61.81-1.55,2.68-2.24,4.48-2.24s3.61.87,4.79,2.3c2.92,3.42,4.79,7.46,6.9,11.44.31.68.81.75,1.18,0,1.24-2.49,4.54-9.7,6.41-11.2.93-.75,2.11-1.18,3.3-1.18,2.24,0,4.66,1.24,5.35,3.3Z"/>
    <path class="cls-17" d="m330.95,500.44c0-1.93.12-3.86.25-5.78.31-4.42.5-10.57,6.41-10.57,2.18,0,5.04.75,5.04,3.42,0,1.68-.93,3.23-1.18,4.91-.37,2.49-.5,5.1-.5,7.65,0,1.99.43,12.25,3.17,12.25.44,0,.75-.19,1.06-.43,4.85-3.79,8.15-16.86,8.65-22.95.12-1.74-.25-3.42,1.31-4.66,1.06-.87,2.49-1.24,3.79-1.24,2.74,0,4.97,1.31,4.97,4.29,0,3.48-1.06,8.08-1.99,11.51-2.24,8.52-7.03,20.83-17.6,20.83s-13.37-10.26-13.37-19.22Z"/>
    <path class="cls-17" d="m378.34,481.34c-2.18,0-5.1-1.06-5.1-3.67s2.92-3.61,5.1-3.61,5.1,1,5.1,3.61-2.92,3.67-5.1,3.67Zm.81,8.96c2.24,0,5.1,1.06,5.1,3.73,0,10.88.43,14.43.43,25.31,0,2.67-2.86,3.73-5.1,3.73s-5.1-1.06-5.1-3.73c0-10.88-.43-14.43-.43-25.31,0-2.67,2.86-3.73,5.1-3.73Z"/>
    <path class="cls-17" d="m403.1,507.09c-.25-6.09-.25-12.19-.56-18.29-.06-.87-.62-1.37-1.49-1.37-1.31,0-2.55-.06-3.86-.06-2.43,0-4.73-.06-4.73-3.17,0-3.3,1.87-3.98,4.79-3.98,6.97,0,13.93-.37,20.9-.37,2.43,0,4.17,1.74,4.17,4.23,0,2.3-2.61,3.05-4.54,3.05-1,0-1.93-.12-2.92-.12-.93,0-2.24-.06-2.24,1.24,0,10.14.87,20.21.87,30.35,0,2.68-2.92,3.67-5.16,3.67-2.74,0-4.91-1.24-4.91-4.23,0-3.67-.19-7.28-.31-10.95Z"/>
    <path class="cls-17" d="m444.53,481.72c2.74,0,5.47.62,8.15,1.31,7.9,2.05,12.69,8.21,12.69,16.42,0,10.57-7.9,20.4-18.91,20.4s-17.29-8.89-17.29-19.22c0-9.08,5.16-18.91,15.36-18.91Zm5.78,8.15c-1.18-.43-2.49-.56-3.79-.56-.81,0-1.55-.25-2.36-.25-.37,0-.75.06-1.06.31-3.11,2.24-4.04,7.46-4.04,11.01,0,1.37.06,2.8.31,4.11.62,3.17,3.48,8.58,7.21,8.58,1,0,1.93-.37,2.74-.93,4.23-2.67,6.28-7.96,6.28-12.81,0-3.73-1.49-8.02-5.29-9.45Z"/>
    <path class="cls-17" d="m488.13,479.23c1.99,0,4.85.87,4.85,3.36,0,1.55-1.24,2.74-2.61,3.23-.68.25-1.31.19-1.99.37-2.36.56-2.8,3.67-2.8,5.66,0,7.15,3.3,13.87,3.3,21.02,0,6.28-3.05,9.2-9.39,9.2-2.24,0-5.72-.81-5.72-3.67,0-2.67,2.74-3.05,4.66-3.42.62-.12.68-.68.68-1.24,0-6.97-3.48-14.37-3.48-21.64s4.66-12.87,12.5-12.87Z"/>
  </g>
</svg>