<?xml version="1.0" encoding="UTF-8"?>
<svg id="Camada_1" data-name="Camada 1" xmlns="http://www.w3.org/2000/svg" xmlns:xlink="http://www.w3.org/1999/xlink" viewBox="0 0 848.68 590.4">
  <defs>
    <style>
      .cls-1 {
        fill: #fdc99b;
      }

      .cls-1, .cls-2, .cls-3, .cls-4, .cls-5, .cls-6, .cls-7, .cls-8, .cls-9, .cls-10, .cls-11, .cls-12, .cls-13, .cls-14, .cls-15, .cls-16, .cls-17, .cls-18, .cls-19, .cls-20, .cls-21, .cls-22, .cls-23, .cls-24 {
        stroke-width: 0px;
      }

      .cls-2 {
        fill: #fcc69f;
      }

      .cls-25 {
        stroke: #fff;
        stroke-width: 23.53px;
      }

      .cls-25, .cls-11, .cls-26 {
        fill: none;
      }

      .cls-25, .cls-26 {
        stroke-miterlimit: 10;
      }

      .cls-3 {
        fill: #fcc8a0;
      }

      .cls-4 {
        fill: #c5a45a;
      }

      .cls-5 {
        fill: #fcc69b;
      }

      .cls-6 {
        fill: #6774a3;
      }

      .cls-7 {
        fill: #ffc49b;
      }

      .cls-8 {
        fill: #170830;
      }

      .cls-9 {
        fill: #a47938;
      }

      .cls-10 {
        fill: #f9f5d8;
      }

      .cls-12 {
        fill: #0c032e;
      }

      .cls-13 {
        fill: #fff;
      }

      .cls-14 {
        fill: url(#Gradiente_sem_nome_38);
      }

      .cls-26 {
        stroke: #f05f0b;
        stroke-width: 2.6px;
      }

      .cls-27 {
        clip-path: url(#clippath);
      }

      .cls-15 {
        fill: #d57c59;
      }

      .cls-16 {
        fill: #1b9d85;
      }

      .cls-17 {
        fill: #14002e;
      }

      .cls-18 {
        fill: #f26e00;
      }

      .cls-19 {
        fill: #f05f0b;
      }

      .cls-20 {
        fill: #d8714d;
      }

      .cls-21 {
        fill: #b50d0d;
      }

      .cls-22 {
        fill: #fcc79e;
      }

      .cls-23 {
        fill: #eba7ab;
      }

      .cls-24 {
        fill: #f97c50;
      }
    </style>
    <clipPath id="clippath">
      <circle class="cls-11" cx="446.84" cy="295.34" r="194.53"/>
    </clipPath>
    <linearGradient id="Gradiente_sem_nome_38" data-name="Gradiente sem nome 38" x1="367.73" y1="418.45" x2="573.37" y2="418.45" gradientUnits="userSpaceOnUse">
      <stop offset="0" stop-color="#b50d0d"/>
      <stop offset="1" stop-color="#630001"/>
    </linearGradient>
  </defs>
  <path class="cls-25" d="m236.12,285.12c-30.73,8.83-56.98,4.54-73.83-27.24-12.84.71-24.34,3.67-34.07,9.59-17.19,11.78-26.97,11.49-25.5-5.9,2.91-20.19,27.49-34.56,53.79-34.53,1.19-13.68-4.61-22.03-21.13-22.2-18.78,1.23-36.43,9.84-40.88,2.39-3.22-8.76,17.06-25.36,34.85-30.23,31.52-7.02,51.43,9.57,54.43,18.6,9.71,20.31-14.01,59.97,37.88,50.7,8.34-1.49,19.54-4.81,30.66-12.02l46.95-40.92-23.17,90.53-39.98,1.22Z"/>
  <rect class="cls-13" x="205.28" y="316.61" width="56.8" height="42.95" rx="11.38" ry="11.38"/>
  <circle class="cls-13" cx="446.84" cy="295.34" r="209.1"/>
  <g>
    <circle class="cls-16" cx="446.84" cy="295.34" r="194.43"/>
    <g class="cls-27">
      <g>
        <rect class="cls-8" x="527.19" y="491.77" width="141.59" height="68.74"/>
        <rect class="cls-8" x="650.77" y="541.13" width="17.39" height="168.84"/>
        <g>
          <circle class="cls-17" cx="407.51" cy="597.24" r="126.54"/>
          <circle class="cls-16" cx="409.63" cy="597.72" r="106.24"/>
          <ellipse class="cls-24" cx="430.12" cy="598.36" rx="68.18" ry="79.37"/>
          <polygon class="cls-12" points="448.54 582.75 491.71 564.29 493.88 570.13 450.05 588.87 448.54 582.75"/>
          <polygon class="cls-12" points="406.59 578.46 362.86 545.68 359.59 549.96 403.73 584.08 406.59 578.46"/>
          <polygon class="cls-12" points="430.01 568.44 429.19 507.72 423.21 507.74 423.13 569.73 430.01 568.44"/>
        </g>
        <path class="cls-8" d="m535.25,445.01h97.16c20.1-.01,35,12.11,39.16,32.26l56.05,224.48-17.32,5.2-37.81-142.81h-121.11l-24.2-26.25h138.52l-10.65-49.93c-1.96-11.26-9.02-17.87-27.17-17.25h-92.64v-25.7Z"/>
        <path class="cls-3" d="m595.49,549.02c14.13,46.06,24.26,100.91,28.73,153.89l34.14-23.69c-3.92-58-13.3-109.13-32.12-153.09-15.68,3.1-26.69,10.09-30.75,22.89Z"/>
        <path class="cls-20" d="m595.49,549.02c4.12-13.23,15.56-19.78,30.75-22.89l2.5,6.03-31.96,21.13-1.29-4.27Z"/>
        <g>
          <path class="cls-3" d="m555.07,540.22c-1.16.4-2.3.79-3.41,1.21,1.11-.45,2.24-.83,3.41-1.21Z"/>
          <path class="cls-3" d="m605.5,701.75l-32.13,19.51-47.72-148.99-2.2-6.48c3.54-12.54,15.9-19.23,27.36-24,1.83.42,3.62.85,5.39,1.29h.01c.07.2.14.39.22.58,24.06,61.18,42.13,118.64,49.07,158.09Z"/>
          <path class="cls-20" d="m556.44,543.65h-.01c-9.52,7.52-20.53,16.97-28.9,28.62l-1.42-4.66-.63-3.6c3.26-12.15,13.39-17.76,25.28-22.24.19-.07.37-.14.56-.2-.17.06-.35.13-.5.22,1.83.42,3.62.85,5.39,1.29-.36-.95-.75-1.9-1.12-2.86l1.14,2.86.23.58Z"/>
        </g>
        <g>
          <rect class="cls-8" x="215.8" y="326.61" width="61.61" height="22.94" rx="7.38" ry="7.38"/>
          <path class="cls-8" d="m267.03,326.61c18.85-.21,31.77,7.12,38.03,22.94h123.49s-31.17,97.74-31.17,97.74v40.05c-26.93-14.04-59.97-13.17-95.23-6.85l-12.61-118.21c-.98-9.29-9.07-13.28-23.59-12.73l1.08-22.94Z"/>
        </g>
        <polygon class="cls-7" points="449.96 329 449.96 341.97 440.02 346.71 454.7 372.59 494.63 367.45 497.56 345.98 490.31 341.97 490.31 326.52 449.96 329"/>
        <path class="cls-19" d="m449.96,337.72c14.85-1.36,28.86-3.83,33.93-10.8l-33.93,2.08v8.72Z"/>
        <path class="cls-14" d="m449.96,341.97c-33.78.57-63.27,23.62-82.23,59.23,17.06-.42,29.44,3.96,35.49,14.81v5.87s-6.24,48.83-6.24,48.83v24.23h142.2l-4.31-91.1,18.31,12.69,20.2-27.31c-24.71-26.82-49.92-41.87-83.06-47.24,15.05,35.21-51.4,31.45-40.35,0Z"/>
        <path class="cls-8" d="m403.17,416.01c13.73-12.34,24.36-28.21,32.44-46.9-3.9,20.23-15.55,40.15-33.3,59.83.58-4.96.98-9.92.86-12.93Z"/>
        <path class="cls-8" d="m526.81,372.32c4.29,11.26,7.27,21.91,8.05,31.51l4.43,3.07c-2.2-12.63-6.36-24.16-12.48-34.58Z"/>
        <path class="cls-2" d="m553.17,416.52c21.84,16.24,43.01,27.14,62.79,27.02h53.05c-3.07,14.93,3.62,35.78,30.1,31.98,20.44-1.94,21.41-34.87,1.65-46.12-15.9-9.5-40.12-11.76-68.47-12.89-19.94-1.35-39.51-12.22-58.92-27.31l-20.2,27.31Z"/>
        <polygon class="cls-15" points="552.83 416.28 573.13 388.9 577.25 392.16 554.56 417.54 552.83 416.28"/>
        <path class="cls-13" d="m331.28,206.39c-.99-120.68,140.66-160.83,211.79-73.39l-211.79,73.39Z"/>
        <ellipse class="cls-5" cx="453.98" cy="211.74" rx="118.02" ry="123.65" transform="translate(70.86 534.46) rotate(-65.11)"/>
        <path class="cls-9" d="m104.47,274.57c6.88,10.46,29.57-19.5,57.81-16.69l-5.77-30.84c-29.82-1.11-63.44,27.62-52.03,47.53Z"/>
        <ellipse class="cls-1" cx="573.85" cy="230.34" rx="21.77" ry="17.21" transform="translate(174.92 702.79) rotate(-71.69)"/>
        <ellipse class="cls-8" cx="419.49" cy="232.36" rx="8.2" ry="11.49" transform="translate(-44.78 112.29) rotate(-14.48)"/>
        <ellipse class="cls-8" cx="516.75" cy="205.57" rx="8.2" ry="11.49" transform="translate(-34.99 135.77) rotate(-14.48)"/>
        <path class="cls-8" d="m447.27,253.86c5.35,53.82,85.66,40.38,58.37-15.3-13.58,15.42-39.38,21.69-58.37,15.3Z"/>
        <path class="cls-18" d="m507.23,274.91c-7.57,12.07-23.08,16.72-37.15,11.01,1.77-18.51,24.04-22.55,37.15-11.01Z"/>
        <path class="cls-26" d="m471.87,217.76c-1.34,4.87,1.83,9.38,7.41,13.71,8.87,5.81,2.52,11.26-8.63,13.22"/>
        <polygon class="cls-16" points="539.41 545.96 401.62 572.27 401.62 494.32 539.41 494.32 539.41 545.96"/>
        <path class="cls-20" d="m556.19,543.08c-1.77-.45-3.57-.88-5.39-1.29.16-.09.33-.16.5-.22.12-.06.24-.1.36-.14,1.11-.42,2.24-.81,3.41-1.21.37.96.76,1.91,1.12,2.86Z"/>
        <path class="cls-16" d="m591.36,510.11l-1.47,44.11c-9.88-6.58-21.13-12.24-33.69-11.14h-.01c-.36-.95-.75-1.9-1.12-2.86-1.16.4-2.3.79-3.41,1.21-.12.04-.24.09-.36.14-.17.06-.35.13-.5.22-.01-.01-.03-.01-.06-.01-3.68-.86-7.46-1.65-11.33-2.42v-31.09c18.91-.59,36.61-.27,51.95,1.84Z"/>
        <path class="cls-6" d="m591.36,510.11c12.46,1.06,24.17,5.99,34.88,16.03-13.74,8.71-25.98,18.02-36.34,28.08-16.52-16.8-17.05-36.61,1.47-44.11Z"/>
        <path class="cls-6" d="m524.24,528.83v43.75c9.51-16.08,22.92-30.66,37.94-34.33-6.16-8.98-19.37-11.62-37.94-9.42Z"/>
        <polygon class="cls-8" points="469.42 573.25 508.09 573.25 564.75 751.31 581.51 744.08 525.46 565.42 525.46 507.23 418.96 507.23 418.96 572.4 469.42 573.25"/>
        <g>
          <ellipse class="cls-16" cx="339.7" cy="619.26" rx="137.06" ry="147.83"/>
          <ellipse class="cls-12" cx="335.67" cy="623.42" rx="133.03" ry="144.15"/>
          <ellipse class="cls-16" cx="336.58" cy="622.45" rx="110.69" ry="123.84"/>
          <ellipse class="cls-24" cx="342.64" cy="621.22" rx="95.45" ry="111.11"/>
          <polygon class="cls-12" points="309.7 593.37 248.48 547.47 243.91 553.46 305.69 601.23 309.7 593.37"/>
          <polygon class="cls-12" points="365.42 593.37 426.64 547.47 431.22 553.46 369.43 601.23 365.42 593.37"/>
          <polygon class="cls-12" points="342.49 579.33 341.34 494.32 332.97 494.36 332.85 581.14 342.49 579.33"/>
          <circle class="cls-10" cx="338.48" cy="620" r="41.36"/>
          <path class="cls-23" d="m276.8,518.2c-72,50.17-70.46,138.77-16.08,194.43-51.5-75.24-42.43-140.91,16.08-194.43Z"/>
        </g>
        <path class="cls-8" d="m507.67,507.23c4.2-20.56-1.74-36.79-17.99-36.53h-98.95v-23.4h103.73c29.5,6.77,34.06,30.72,31.01,59.93h-17.07"/>
        <path class="cls-22" d="m370.82,401.18c-8.83,16.29-15.79,32.13-15.05,46.12h130.05c7.22.79,13.3,3.1,15.79,8.35,10.79,28.31,50.89,25.95,43.32-4.41-1.47-4.74-4.58-9.49-8.49-14.32-13.39-12.21-39.91-12.48-57.04-13.59l-84.99-1.47,5.36-10.66c-6.58-9.62-16.98-13.49-28.95-10.04Z"/>
        <path class="cls-19" d="m343.19,251.95l2.75,3.26c61.64-63.45,136.97-95.6,220.7-86.57l-3.1-6.86c-86.54-14.02-163.84,13.86-220.36,90.17Z"/>
        <path class="cls-4" d="m541.62,131.47c5.2,4.88,16.9,17.31,22.59,31.86-81.64-6.04-158.16,22.02-220.83,92.24-22.68-20.92-51.52-11.89-84.44,16.89-39.63,32.67-104.74,15.44-102.43-45.42.03-.8.07-1.61.13-2.43,4.62-41.39-68.51-1.79-61.69-21.42,10.72-28.57,53.55-34.93,79.56-18.48,31.81,20.71-18.32,77.72,58.74,59.2,14.71-4.91,21.32-11.65,28.88-16.73,24.78-16.68,54.7-13.75,70.98-4.65,59.8-62.57,128.67-91.88,208.52-91.06Z"/>
        <ellipse class="cls-1" cx="347.41" cy="276.04" rx="27.53" ry="24.08"/>
        <path class="cls-26" d="m343.86,261.57c-27.69,2.52-16.26,37.78,11.07,29.25"/>
        <rect class="cls-8" x="508.08" y="553.29" width="17.39" height="168.84"/>
      </g>
    </g>
  </g>
  <path class="cls-24" d="m449.96,337.72c14.85-1.36,28.86-3.83,33.93-10.8l-33.93,2.08v8.72Z"/>
  <path class="cls-13" d="m331.28,206.39c-.99-120.68,140.66-160.83,211.79-73.39l-211.79,73.39Z"/>
  <ellipse class="cls-5" cx="453.98" cy="211.74" rx="118.02" ry="123.65" transform="translate(70.86 534.46) rotate(-65.11)"/>
  <path class="cls-9" d="m104.47,274.57c6.88,10.46,29.57-19.5,57.81-16.69l-5.77-30.84c-29.82-1.11-63.44,27.62-52.03,47.53Z"/>
  <ellipse class="cls-1" cx="573.85" cy="230.34" rx="21.77" ry="17.21" transform="translate(174.92 702.79) rotate(-71.69)"/>
  <ellipse class="cls-8" cx="419.49" cy="232.36" rx="8.2" ry="11.49" transform="translate(-44.78 112.29) rotate(-14.48)"/>
  <ellipse class="cls-8" cx="516.75" cy="205.57" rx="8.2" ry="11.49" transform="translate(-34.99 135.77) rotate(-14.48)"/>
  <path class="cls-8" d="m447.27,253.86c5.35,53.82,85.66,40.38,58.37-15.3-13.58,15.42-39.38,21.69-58.37,15.3Z"/>
  <path class="cls-24" d="m507.23,274.91c-7.57,12.07-23.08,16.72-37.15,11.01,1.77-18.51,24.04-22.55,37.15-11.01Z"/>
  <path class="cls-26" d="m471.87,217.76c-1.34,4.87,1.83,9.38,7.41,13.71,8.87,5.81,2.52,11.26-8.63,13.22"/>
  <path class="cls-24" d="m343.19,251.95l2.75,3.26c61.64-63.45,136.97-95.6,220.7-86.57l-3.1-6.86c-86.54-14.02-163.84,13.86-220.36,90.17Z"/>
  <path class="cls-4" d="m541.62,131.47c5.2,4.88,16.9,17.31,22.59,31.86-81.64-6.04-158.16,22.02-220.83,92.24-22.68-20.92-51.52-11.89-84.44,16.89-39.63,32.67-104.74,15.44-102.43-45.42.03-.8.07-1.61.13-2.43,4.62-41.39-68.51-1.79-61.69-21.42,10.72-28.57,53.55-34.93,79.56-18.48,31.81,20.71-18.32,77.72,58.74,59.2,14.71-4.91,21.32-11.65,28.88-16.73,24.78-16.68,54.7-13.75,70.98-4.65,59.8-62.57,128.67-91.88,208.52-91.06Z"/>
  <ellipse class="cls-1" cx="347.41" cy="276.04" rx="27.53" ry="24.08"/>
  <path class="cls-26" d="m343.86,261.57c-27.69,2.52-16.26,37.78,11.07,29.25"/>
  <path class="cls-21" d="m601.82,327.03h0c0-.16.01-.31.01-.47,0-6.35-5.35-11.85-11.96-11.85-4.83,0-8.98,3.98-10.87,7.94h0c-1.89-3.96-6.04-7.94-10.87-7.94-6.6,0-11.96,5.5-11.96,11.85,0,.16,0,.32.01.47h0s-.67,7.54,7.72,15.77c3.81,3.82,8.08,7.45,15.1,13.16,7.02-5.71,11.29-9.34,15.1-13.16,8.39-8.23,7.72-15.77,7.72-15.77Z"/>
  <path class="cls-24" d="m449.96,341.97l-.65,2.48c-11.94-.79-33.14,6.03-43.67,12.32,10.7-7.88,30.63-15.76,44.31-14.79Z"/>
  <path class="cls-24" d="m490.31,341.97l1.16,3.07c10.82.74,34.87,7.4,45.98,13.95-7.4-5.11-28-14.48-47.14-17.02Z"/>
  <rect class="cls-8" x="215.8" y="326.61" width="61.61" height="22.94" rx="7.38" ry="7.38"/>
</svg>