<?xml version="1.0" encoding="utf-8"?>
<!-- Generator: Adobe Illustrator 27.9.0, SVG Export Plug-In . SVG Version: 6.00 Build 0)  -->
<svg version="1.1" id="Camada_1" xmlns="http://www.w3.org/2000/svg" xmlns:xlink="http://www.w3.org/1999/xlink" x="0px" y="0px"
	 viewBox="0 0 1200 388.2" style="enable-background:new 0 0 1200 388.2;" xml:space="preserve">
<style type="text/css">
	.st0{fill:#B50D0D;}
	.st1{fill:#170830;}
	.st2{font-family:'Montserrat-Medium';}
	.st3{font-size:18.2916px;}
	.st4{letter-spacing:3;}
	.st5{fill:#1B9D85;}
	.st6{clip-path:url(#SVGID_00000000912676292768314980000001991600801850630311_);}
	.st7{fill:#11032B;}
	.st8{fill:#D7822C;}
	.st9{fill:#060035;}
	.st10{fill:none;stroke:#95356F;stroke-width:0.4522;stroke-linecap:round;stroke-miterlimit:10;}
	.st11{fill:#14002E;}
	.st12{fill:#F97C50;}
	.st13{fill:#0C032E;}
	.st14{fill:#FCC8A0;}
	.st15{fill:#832506;}
	.st16{fill:#D8714D;}
	.st17{fill:#FFC49B;}
	.st18{fill:#F05F0B;}
	.st19{fill:url(#SVGID_00000073707879300387613650000007140589655491716232_);}
	.st20{fill:#FCC69F;}
	.st21{fill:#D57C59;}
	.st22{fill:#FFFFFF;}
	.st23{fill:#FCC69B;}
	.st24{fill:#A47938;}
	.st25{fill:#FDC99B;}
	.st26{fill:#F26E00;}
	.st27{fill:none;stroke:#F05F0B;stroke-width:1.9989;stroke-miterlimit:10;}
	.st28{fill:none;stroke:#FFFFFF;stroke-width:0.4522;stroke-miterlimit:10;}
	.st29{fill:#6774A3;}
	.st30{fill:#F9F5D8;}
	.st31{fill:#110333;}
	.st32{fill:#EBA7AB;}
	.st33{fill:#FCC79E;}
	.st34{fill:#E4ECCE;}
	.st35{opacity:0.2;}
	.st36{fill:#C5A45A;}
	.st37{fill:none;stroke:#1B9D85;stroke-width:0.4522;stroke-linecap:round;stroke-miterlimit:10;}
	.st38{clip-path:url(#SVGID_00000124132509508833194790000003237373929946187187_);}
	.st39{fill:none;stroke:#95356F;stroke-width:0.6135;stroke-linecap:round;stroke-miterlimit:10;}
	.st40{fill:url(#SVGID_00000028284909316129113080000012224356417285790619_);}
	.st41{fill:none;stroke:#F05F0B;stroke-width:2.7117;stroke-miterlimit:10;}
	.st42{fill:none;stroke:#FFFFFF;stroke-width:0.6135;stroke-miterlimit:10;}
	.st43{fill:none;stroke:#1B9D85;stroke-width:0.6135;stroke-linecap:round;stroke-miterlimit:10;}
	.st44{fill:#B8B8B8;}
	.st45{clip-path:url(#SVGID_00000148649397795620846720000008832755294920425898_);}
	.st46{fill:#222222;}
	.st47{fill:#1D1D1D;}
	.st48{fill:#C8C8C8;}
	.st49{fill:#181818;}
	.st50{fill:none;stroke:#AAAAAA;stroke-width:0.7005;stroke-linecap:round;stroke-miterlimit:10;}
	.st51{fill:#1A1A1A;}
	.st52{fill:#CDCDCD;}
	.st53{fill:#E8E8E8;}
	.st54{fill:#9D9D9D;}
	.st55{fill:#C4C4C4;}
	.st56{fill:#E7E7E7;}
	.st57{fill:#BFBFBF;}
	.st58{fill:url(#SVGID_00000048497301411109607390000003487518475666658721_);}
	.st59{fill:#BEBEBE;}
	.st60{fill:#E9E9E9;}
	.st61{fill:#C3C3C3;}
	.st62{fill:none;stroke:#BFBFBF;stroke-width:3.0962;stroke-miterlimit:10;}
	.st63{fill:none;stroke:#FFFFFF;stroke-width:0.7005;stroke-miterlimit:10;}
	.st64{fill:#B9B9B9;}
	.st65{fill:#F9F9F9;}
	.st66{fill:#DDDDDD;}
	.st67{fill:#F2F2F2;}
	.st68{opacity:0.2;fill:#111111;}
	.st69{fill:#D2D2D2;}
	.st70{fill:none;stroke:#B8B8B8;stroke-width:0.7005;stroke-linecap:round;stroke-miterlimit:10;}
	.st71{fill:#9E9E9E;}
	.st72{fill:#737373;}
	.st73{clip-path:url(#SVGID_00000168109522420258403930000016095868441415305904_);}
	.st74{fill:#111111;}
	.st75{fill:#0C0C0C;}
	.st76{fill:#929292;}
	.st77{fill:#080808;}
	.st78{fill:none;stroke:#585858;stroke-width:0.6943;stroke-linecap:round;stroke-miterlimit:10;}
	.st79{fill:#0B0B0B;}
	.st80{fill:#0A0A0A;}
	.st81{fill:#D3D3D3;}
	.st82{fill:#3E3E3E;}
	.st83{fill:#8C8C8C;}
	.st84{fill:#D1D1D1;}
	.st85{fill:#818181;}
	.st86{fill:url(#SVGID_00000176032878241377031760000000533115393810649267_);}
	.st87{fill:#939393;}
	.st88{fill:#7F7F7F;}
	.st89{fill:#D4D4D4;}
	.st90{fill:#898989;}
	.st91{fill:none;stroke:#818181;stroke-width:3.0689;stroke-miterlimit:10;}
	.st92{fill:none;stroke:#FFFFFF;stroke-width:0.6943;stroke-miterlimit:10;}
	.st93{fill:#757575;}
	.st94{fill:#F3F3F3;}
	.st95{fill:#BCBCBC;}
	.st96{fill:#E6E6E6;}
	.st97{fill:#A6A6A6;}
	.st98{fill:none;stroke:#737373;stroke-width:0.6943;stroke-linecap:round;stroke-miterlimit:10;}
	.st99{fill:#3F3F3F;}
	.st100{clip-path:url(#SVGID_00000075133160869572001930000017447610602779770302_);}
	.st101{fill:none;stroke:#95356F;stroke-width:0.8355;stroke-linecap:round;stroke-miterlimit:10;}
	.st102{fill:url(#SVGID_00000132801259949782783220000005317642740177117875_);}
	.st103{fill:none;stroke:#F05F0B;stroke-width:3.693;stroke-miterlimit:10;}
	.st104{fill:none;stroke:#FFFFFF;stroke-width:0.8355;stroke-miterlimit:10;}
	.st105{fill:none;stroke:#1B9D85;stroke-width:0.8355;stroke-linecap:round;stroke-miterlimit:10;}
</style>
<g>
	<g>
		<path class="st0" d="M583.73,121c0,14.86-7.92,28.96-22.23,34.27c-1.84,0.65-5.86,1.84-7.81,1.84c-1.3,0-1.63-0.11-1.63,1.52
			c0,5.2,0.11,10.63,0.33,15.83c0.11,2.17,0.54,4.34,0.54,6.51c0,5.86-4.12,8.02-9.44,8.02c-1.95,0-3.79-0.54-5.42-1.52
			c-2.71-1.73-2.71-4.23-2.82-7.16c-0.33-7.81-0.54-15.62-0.54-23.43c0-2.49-2.17-4.45-2.17-6.83c0-2.28,2.17-3.47,2.17-5.96
			c0-11.93,0.33-23.86,0.33-35.79c0-2.17-0.33-4.55,0.65-6.51c1.41-2.82,5.1-4.01,8.03-4.01c1.95,0,3.8,0.76,5.75,0.76
			c2.71,0,7.37-1.63,11.5-1.63C575.59,96.93,583.73,106.69,583.73,121z M554.34,144.21c8.24-3.47,12.26-13.77,12.26-22.12
			c0-4.55-1.3-12.8-7.16-12.8c-2.06,0-7.16,0.98-7.16,3.47c0,4.45-0.22,9-0.22,13.45v16.27c0,0.87,0.54,1.95,1.52,1.95
			C553.9,144.43,554.12,144.32,554.34,144.21z"/>
		<path class="st0" d="M659.65,133.47c0,17.9-16.48,35.25-34.6,35.25c-15.62,0-26.68-12.36-26.68-27.65
			c0-17.46,13.55-33.08,31.56-33.08C643.38,107.99,659.65,117.97,659.65,133.47z M641.86,134.02c0-6.4-7.05-16.7-15.62-12.47
			c-6.72,3.14-10.3,13.01-10.3,19.95c0,5.2,3.04,14.64,9.43,14.64C634.27,156.14,641.86,141.82,641.86,134.02z"/>
		<path class="st0" d="M693.17,104.95c12.26,0,27.98,6.07,27.98,20.5c0,9.54-7.7,13.99-15.62,16.7c-0.54,0.22-1.3,0.44-1.3,1.09
			c0,1.74,12.04,10.41,13.99,11.71c2.38,1.52,6.72,2.93,6.72,6.72c0,4.01-4.23,6.51-7.81,6.51c-9.43,0-23.1-14.42-24.73-14.42
			c-0.65,0-0.65,0.87-0.65,1.3c0,1.74,0.33,3.47,0.33,5.2c0,6.18-2.39,9.65-9,9.65c-5.64,0-8.78-2.39-8.78-8.13
			c0-10.63,0.11-21.25,0.11-31.88c0-8.68-0.87-21.91,4.66-23.97C681.02,105.17,688.83,104.95,693.17,104.95z M694.15,117.42
			c-3.47,0-3.25,2.71-3.25,5.31c0,2.49-0.22,5.1-0.22,7.59c0,1.3,1.95,0.98,2.93,0.98c3.79,0,10.08-0.76,10.08-5.86
			C703.69,120.68,698.48,117.42,694.15,117.42z"/>
		<path class="st0" d="M802.71,109.07c12.25,11.17,15.72,33.4,21.15,48.47c0.43,1.3,0.87,2.71,0.87,4.12c0,4.88-4.12,7.37-8.68,7.37
			c-9.22,0-8.89-6.72-10.52-13.56c-0.43-1.73-0.87-3.47-1.41-5.09c-0.22-0.76-0.33-1.41-1.3-1.41c-4.55,0-9.22,0.11-13.77,0.11
			c-0.65,0-1.19-0.11-1.74-0.11c-0.87,0-1.09,0.43-1.3,1.19c-0.44,1.95-0.87,3.79-1.3,5.75c-1.41,6.4,0.65,14.31-9.54,14.31
			c-3.8,0-8.46-1.63-8.46-6.18c0-10.3,3.58-20.71,6.51-30.47c1.63-5.53,3.36-11.17,4.99-16.7c1.08-3.69,1.3-9.54,4.77-11.82
			c1.85-1.19,4.01-1.73,6.18-1.73C793.93,103.33,799.24,105.82,802.71,109.07z M793.17,125.01c-0.33,0.98-2.93,9.87-2.93,10.19
			c0,1.09,0.87,1.74,1.84,1.74h5.53c0.98,0,1.74-0.65,1.74-1.63c0-1.3-3.47-9-4.34-10.52c-0.22-0.33-0.43-0.87-0.87-0.87
			C793.6,123.93,793.28,124.58,793.17,125.01z"/>
		<path class="st0" d="M917.89,105.5c0,12.58-0.22,25.27,0.33,37.85c0.11,3.04,0,6.18,0.65,9.11c0.44,1.95,1.95,3.8,1.95,5.75
			c0,4.34-5.75,6.94-9.43,6.94c-11.06,0-9.98-12.47-10.3-20.17c-0.22-5.42-0.11-10.95-0.43-16.38c0-0.33,0-1.19-0.54-1.19
			c-1.41,0-8.13,14.97-18.11,14.97c-8.35,0-18.22-16.59-21.15-16.59c-1.52,0-1.84,5.64-1.95,6.83c-1.19,11.28-1.95,22.34-1.95,33.62
			c0,5.97-2.49,8.89-8.68,8.89c-6.07,0-8.89-3.04-8.89-9c0-8.89,2.71-52.92,7.92-57.8c1.63-1.52,3.8-2.17,5.97-2.17
			c7.7,0,18.33,8.13,23.43,13.66c1.3,1.41,2.93,4.23,4.99,4.23c4.77,0,15.83-26.89,27.98-26.89
			C915.07,97.14,917.89,100.18,917.89,105.5z"/>
		<path class="st0" d="M996.75,133.47c0,17.9-16.48,35.25-34.6,35.25c-15.62,0-26.68-12.36-26.68-27.65
			c0-17.46,13.55-33.08,31.56-33.08C980.48,107.99,996.75,117.97,996.75,133.47z M978.96,134.02c0-6.4-7.05-16.7-15.62-12.47
			c-6.72,3.14-10.3,13.01-10.3,19.95c0,5.2,3.04,14.64,9.43,14.64C971.37,156.14,978.96,141.82,978.96,134.02z"/>
		<path class="st0" d="M1030.26,104.95c12.26,0,27.98,6.07,27.98,20.5c0,9.54-7.7,13.99-15.62,16.7c-0.54,0.22-1.3,0.44-1.3,1.09
			c0,1.74,12.04,10.41,13.99,11.71c2.38,1.52,6.72,2.93,6.72,6.72c0,4.01-4.23,6.51-7.81,6.51c-9.43,0-23.1-14.42-24.73-14.42
			c-0.65,0-0.65,0.87-0.65,1.3c0,1.74,0.33,3.47,0.33,5.2c0,6.18-2.39,9.65-9,9.65c-5.64,0-8.78-2.39-8.78-8.13
			c0-10.63,0.11-21.25,0.11-31.88c0-8.68-0.87-21.91,4.66-23.97C1018.12,105.17,1025.93,104.95,1030.26,104.95z M1031.24,117.42
			c-3.47,0-3.25,2.71-3.25,5.31c0,2.49-0.22,5.1-0.22,7.59c0,1.3,1.95,0.98,2.93,0.98c3.79,0,10.08-0.76,10.08-5.86
			C1040.78,120.68,1035.58,117.42,1031.24,117.42z"/>
		<path class="st0" d="M550.98,201.69c20.93,0,33.95,17.03,33.95,37.09c0,19.84-13.12,36.33-33.84,36.33
			c-2.49,0-5.09-0.22-7.59-0.76c-4.34-0.98-7.05-2.71-7.48-7.48c-0.43-5.21-0.98-10.3-1.52-15.51c-0.87-7.81-1.95-15.51-1.95-23.42
			c0-3.8,0.22-9.11,1.41-12.8c0.33-0.87,0.65-1.41,0.65-2.28c0-1.41-0.87-2.49-0.87-3.9C533.73,202.99,546.64,201.69,550.98,201.69z
			 M555.75,262.42c9-3.69,12.04-14.86,12.04-23.75c0-7.81-2.28-17.03-8.78-22.01c-1.52-1.19-3.36-2.17-5.31-2.49
			c-0.98,0.44-2.39,1.63-2.82,2.71c-1.09,2.82-1.19,6.62-1.19,9.54c0,11.5,1.63,22.77,2.93,34.16c0.11,0.98,0.54,2.28,1.74,2.28
			C554.56,262.86,555.53,262.53,555.75,262.42z"/>
		<path class="st0" d="M630.04,213.51c-2.82,0-5.53-0.22-8.35-0.22c-1.52,0-2.39,0.76-2.49,2.28c-0.22,2.17-0.11,4.34-0.22,6.51
			c-0.11,2.5-0.33,5.1-0.33,7.59c0,0.87,0.33,1.74,1.3,1.74c1.3,0,6.07-3.36,10.3-3.36c3.58,0,8.35,1.95,8.35,6.18
			c0,6.18-13.77,9.32-18.55,10.73c-1.08,0.33-1.73,1.41-1.73,2.49c0,6.29,0.54,12.47,1.19,18.76c0.11,1.19-0.33,2.6,1.41,2.6
			c2.39,0,4.88-0.65,7.27-0.65c3.69,0,9,1.63,9,6.18c0,6.61-11.5,6.83-16.05,6.83c-4.55,0-13.77,0-16.7-3.9
			c-1.52-2.06-1.41-5.53-1.74-8.02c-0.98-8.03-1.52-16.05-1.52-24.19c0-11.28,0.65-22.45,0.76-33.73c0.11-5.21,0.33-9.65,6.18-9.98
			c6.72-0.33,8.46-0.22,17.46-0.22c3.04,0,6.07-0.11,9,1.09c2.17,0.87,4.12,2.82,4.12,5.31
			C638.72,211.78,633.51,213.51,630.04,213.51z"/>
		<path class="st0" d="M750.21,209.93c3.9,11.61,7.92,33.84,12.04,49.56c0.98,3.58,3.14,4.12,3.14,8.78c0,5.64-3.47,8.03-8.78,8.03
			c-5.86,0-7.48-2.17-9-6.94c-3.47-11.39-5.75-25.27-9-36.44c-0.33-0.98-1.08-1.52-1.52-0.11c-2.39,5.2-3.47,10.3-5.97,16.05
			c-1.3,3.04-4.12,3.69-7.27,3.69c-0.65,0-1.19,0-1.84-0.11c-5.31-0.87-6.94-5.53-9.22-9.76c-2.5-4.55-4.55-9.44-7.05-14.1
			c-0.43-0.87-1.52-1.19-1.52,0.22c-0.43,2.49-0.54,5.09-0.76,7.59c-0.54,6.29-1.3,11.93-1.84,18.11c-0.44,4.55-1.09,9-2.17,13.45
			c-0.65,2.6-1.19,4.55-3.79,5.86c-1.52,0.76-3.25,1.08-4.88,1.08c-3.69,0-8.68-1.73-8.68-6.07c0-0.54,0.11-1.08,0.22-1.63
			c1.08-3.9,1.63-7.59,2.06-11.61c1.3-14.1,3.47-38.82,9.32-49.88c1.41-2.71,4.66-3.9,7.81-3.9c3.25,0,6.29,1.52,8.35,4.01
			c5.1,5.97,8.35,13.02,12.04,19.96c0.54,1.19,1.41,1.3,2.06,0c2.17-4.34,7.92-16.92,11.17-19.52c1.63-1.3,3.69-2.06,5.75-2.06
			C744.79,204.19,749.02,206.36,750.21,209.93z"/>
		<path class="st0" d="M781.68,237.8c0-3.36,0.22-6.72,0.43-10.08c0.54-7.7,0.87-18.44,11.17-18.44c3.8,0,8.79,1.3,8.79,5.97
			c0,2.93-1.63,5.64-2.06,8.57c-0.65,4.34-0.87,8.89-0.87,13.34c0,3.47,0.76,21.36,5.53,21.36c0.76,0,1.3-0.33,1.84-0.76
			c8.46-6.62,14.21-29.39,15.07-40.02c0.22-3.04-0.43-5.97,2.28-8.13c1.84-1.52,4.34-2.17,6.62-2.17c4.77,0,8.67,2.28,8.67,7.48
			c0,6.07-1.84,14.1-3.47,20.06c-3.9,14.86-12.26,36.33-30.69,36.33C785.69,271.31,781.68,253.42,781.68,237.8z"/>
		<path class="st0" d="M864.32,204.51c-3.79,0-8.89-1.84-8.89-6.4c0-4.55,5.1-6.29,8.89-6.29c3.8,0,8.89,1.74,8.89,6.29
			C873.21,202.67,868.12,204.51,864.32,204.51z M865.73,220.13c3.9,0,8.89,1.84,8.89,6.51c0,18.98,0.76,25.16,0.76,44.14
			c0,4.66-4.99,6.51-8.89,6.51c-3.9,0-8.89-1.84-8.89-6.51c0-18.98-0.76-25.16-0.76-44.14
			C856.84,221.97,861.83,220.13,865.73,220.13z"/>
		<path class="st0" d="M907.49,249.41c-0.43-10.63-0.43-21.26-0.98-31.88c-0.11-1.52-1.08-2.39-2.6-2.39
			c-2.28,0-4.45-0.11-6.73-0.11c-4.23,0-8.24-0.11-8.24-5.53c0-5.75,3.25-6.94,8.35-6.94c12.15,0,24.29-0.65,36.44-0.65
			c4.23,0,7.27,3.04,7.27,7.38c0,4.01-4.55,5.31-7.92,5.31c-1.74,0-3.36-0.22-5.1-0.22c-1.63,0-3.9-0.11-3.9,2.17
			c0,17.68,1.52,35.25,1.52,52.92c0,4.66-5.09,6.4-9,6.4c-4.77,0-8.57-2.17-8.57-7.38C908.03,262.1,907.7,255.81,907.49,249.41z"/>
		<path class="st0" d="M979.72,205.16c4.77,0,9.54,1.09,14.21,2.28c13.77,3.58,22.12,14.31,22.12,28.63
			c0,18.44-13.77,35.57-32.97,35.57c-19.09,0-30.15-15.51-30.15-33.51C952.94,222.3,961.93,205.16,979.72,205.16z M989.81,219.37
			c-2.06-0.76-4.34-0.98-6.62-0.98c-1.41,0-2.71-0.43-4.12-0.43c-0.65,0-1.3,0.11-1.84,0.54c-5.42,3.9-7.05,13.02-7.05,19.2
			c0,2.39,0.11,4.88,0.54,7.16c1.08,5.53,6.07,14.96,12.58,14.96c1.74,0,3.36-0.65,4.77-1.63c7.37-4.66,10.95-13.88,10.95-22.34
			C999.02,229.35,996.42,221.86,989.81,219.37z"/>
		<path class="st0" d="M1055.75,200.83c3.47,0,8.46,1.52,8.46,5.86c0,2.71-2.17,4.77-4.55,5.64c-1.19,0.43-2.28,0.33-3.47,0.65
			c-4.12,0.98-4.88,6.4-4.88,9.87c0,12.47,5.75,24.18,5.75,36.65c0,10.95-5.31,16.05-16.37,16.05c-3.9,0-9.98-1.41-9.98-6.4
			c0-4.66,4.77-5.31,8.13-5.96c1.09-0.22,1.19-1.19,1.19-2.17c0-12.15-6.07-25.05-6.07-37.74
			C1033.96,210.04,1042.09,200.83,1055.75,200.83z"/>
	</g>
	<g>
		<text transform="matrix(1 0 0 1 532.5404 314.6)" class="st1 st2 st3 st4">CRIANÇAS E ADOLESCENTES COM CÂNCER</text>
	</g>
	<g>
		<g>
			<circle class="st5" cx="345.73" cy="197.95" r="145.13"/>
			<g>
				<defs>
					<circle id="SVGID_1_" cx="345.73" cy="197.95" r="145.21"/>
				</defs>
				<clipPath id="SVGID_00000093899202320925265590000016485727135877509796_">
					<use xlink:href="#SVGID_1_"  style="overflow:visible;"/>
				</clipPath>
				<g style="clip-path:url(#SVGID_00000093899202320925265590000016485727135877509796_);">
					<rect x="405.7" y="344.58" class="st1" width="105.69" height="51.31"/>
					<rect x="497.95" y="381.42" class="st1" width="12.98" height="126.04"/>
					<g>
						<circle class="st11" cx="316.36" cy="423.31" r="94.46"/>
						<circle class="st5" cx="317.95" cy="423.66" r="79.3"/>
						<ellipse class="st12" cx="333.24" cy="424.14" rx="50.89" ry="59.24"/>
						<polygon class="st13" points="315.68,409.29 283.04,384.82 280.6,388.02 313.54,413.48 						"/>
						<polygon class="st13" points="333.16,401.81 332.55,356.48 328.08,356.5 328.02,402.77 						"/>
					</g>
					<path class="st1" d="M411.72,309.67l72.53,0c15-0.01,26.12,9.04,29.23,24.08l41.84,167.56l-12.93,3.88l-28.23-106.6h-90.4
						L405.7,379h103.4l-7.95-37.27c-1.46-8.4-6.73-13.34-20.28-12.88h-69.15V309.67z"/>
					<path class="st14" d="M456.68,387.32c10.55,34.39,18.11,75.32,21.45,114.87l25.49-17.68c-2.92-43.3-9.93-81.46-23.98-114.27
						C467.94,372.54,459.71,377.76,456.68,387.32z"/>
					<path class="st16" d="M456.68,387.32c3.08-9.88,11.61-14.76,22.95-17.08l1.87,4.5l-23.86,15.77L456.68,387.32z"/>
					<g>
						<path class="st14" d="M426.51,380.74c-0.87,0.3-1.72,0.59-2.54,0.9C424.8,381.31,425.65,381.02,426.51,380.74z"/>
						<path class="st14" d="M464.16,501.32l-23.98,14.57l-35.62-111.22l-1.64-4.84c2.64-9.36,11.87-14.35,20.42-17.92
							c1.36,0.31,2.7,0.63,4.02,0.97h0.01c0.05,0.15,0.11,0.29,0.16,0.43C445.48,428.98,458.97,471.86,464.16,501.32z"/>
						<path class="st16" d="M427.53,383.31h-0.01c-7.11,5.61-15.33,12.67-21.57,21.36l-1.06-3.48l-0.47-2.69
							c2.44-9.07,9.99-13.26,18.87-16.6c0.14-0.05,0.28-0.11,0.42-0.15c-0.13,0.04-0.26,0.1-0.38,0.16c1.36,0.31,2.7,0.63,4.02,0.97
							c-0.27-0.71-0.56-1.42-0.84-2.14l0.85,2.14L427.53,383.31z"/>
					</g>
					<g>
						<path class="st1" d="M212.66,238.42h-32.81c-3.64,0-6.59-2.95-6.59-6.59v-3.94c0-3.64,2.95-6.59,6.59-6.59h32.81
							c3.64,0,6.59,2.95,6.59,6.59v3.94C219.26,235.47,216.3,238.42,212.66,238.42z"/>
						<path class="st1" d="M211.5,221.29c14.07-0.15,23.72,5.32,28.39,17.13h92.18l-23.26,72.96v29.89
							c-20.1-10.48-44.76-9.83-71.08-5.12l-9.42-88.24c-0.73-6.93-6.77-9.91-17.61-9.5L211.5,221.29z"/>
					</g>
					<polygon class="st17" points="348.05,223.08 348.05,232.76 340.63,236.3 351.59,255.62 381.39,251.78 383.59,235.75 
						378.17,232.76 378.17,221.23 					"/>
					<path class="st18" d="M348.05,229.58c11.08-1.01,21.55-2.86,25.33-8.06l-25.33,1.56V229.58z"/>
					
						<linearGradient id="SVGID_00000029768333932311173330000018056359914352610970_" gradientUnits="userSpaceOnUse" x1="286.6697" y1="289.8488" x2="440.1755" y2="289.8488">
						<stop  offset="0" style="stop-color:#B50D0D"/>
						<stop  offset="1" style="stop-color:#630001"/>
					</linearGradient>
					<path style="fill:url(#SVGID_00000029768333932311173330000018056359914352610970_);" d="M348.05,232.76
						c-25.21,0.42-47.23,17.63-61.38,44.21c12.74-0.31,21.98,2.96,26.49,11.05l0,4.38l-4.66,36.45v18.09h106.14l-3.22-68.01
						l13.67,9.47l15.08-20.39c-18.45-20.02-37.26-31.25-62-35.26C389.41,259.04,339.81,256.23,348.05,232.76z"/>
					<path class="st1" d="M313.13,288.03c10.25-9.21,18.19-21.06,24.22-35.01c-2.91,15.1-11.61,29.97-24.86,44.66
						C312.92,293.97,313.22,290.27,313.13,288.03z"/>
					<path class="st1" d="M405.42,255.41c3.2,8.4,5.43,16.35,6.01,23.52l3.3,2.29C413.09,271.79,409.99,263.19,405.42,255.41z"/>
					<path class="st20" d="M425.1,288.41c16.3,12.12,32.1,20.26,46.87,20.17h39.6c-2.29,11.14,2.7,26.71,22.47,23.87
						c15.26-1.45,15.99-26.03,1.23-34.43c-11.87-7.09-29.95-8.78-51.11-9.62c-14.88-1.01-29.49-9.12-43.98-20.39L425.1,288.41z"/>
					<polygon class="st21" points="424.84,288.23 439.99,267.79 443.07,270.22 426.13,289.17 					"/>
					<path class="st22" d="M259.47,131.55C258.72,41.47,364.46,11.5,417.56,76.77L259.47,131.55z"/>
					
						<ellipse transform="matrix(0.4208 -0.9071 0.9071 0.4208 80.3624 396.9605)" class="st23" cx="351.05" cy="135.55" rx="88.1" ry="92.3"/>
					<path class="st24" d="M90.16,182.45c5.14,7.81,22.07-14.55,43.15-12.46L129,146.97C106.74,146.14,81.65,167.58,90.16,182.45z"
						/>
					
						<ellipse transform="matrix(0.3141 -0.9494 0.9494 0.3141 160.2926 520.729)" class="st25" cx="440.53" cy="149.43" rx="16.25" ry="12.84"/>
					
						<ellipse transform="matrix(0.9682 -0.2501 0.2501 0.9682 -27.4102 86.1535)" class="st1" cx="325.31" cy="150.94" rx="6.12" ry="8.57"/>
					
						<ellipse transform="matrix(0.9682 -0.2501 0.2501 0.9682 -20.1024 103.6752)" class="st1" cx="397.91" cy="130.94" rx="6.12" ry="8.57"/>
					<path class="st1" d="M346.04,166.99c4,40.17,63.94,30.14,43.57-11.42C379.48,167.08,360.22,171.76,346.04,166.99z"/>
					<path class="st26" d="M390.8,182.7c-5.65,9.01-17.23,12.48-27.73,8.22C364.39,177.1,381.02,174.08,390.8,182.7z"/>
					<path class="st27" d="M364.4,140.04c-1,3.63,1.36,7,5.53,10.23c6.62,4.34,1.88,8.41-6.44,9.87"/>
					<polygon class="st5" points="414.83,385.03 311.97,404.67 311.97,346.48 414.83,346.48 					"/>
					<path class="st16" d="M427.35,382.88c-1.32-0.33-2.66-0.65-4.02-0.97c0.12-0.06,0.25-0.12,0.38-0.16
						c0.09-0.04,0.18-0.08,0.27-0.11c0.83-0.31,1.67-0.6,2.54-0.9C426.79,381.46,427.08,382.17,427.35,382.88z"/>
					<path class="st5" d="M453.6,358.27l-1.09,32.93c-7.38-4.91-15.77-9.14-25.15-8.32h-0.01c-0.27-0.71-0.56-1.42-0.84-2.14
						c-0.87,0.3-1.72,0.59-2.54,0.9c-0.09,0.03-0.18,0.06-0.27,0.11c-0.13,0.04-0.26,0.1-0.38,0.16c-0.01-0.01-0.02-0.01-0.04-0.01
						c-2.75-0.64-5.57-1.23-8.46-1.8v-23.2C428.94,356.45,442.15,356.69,453.6,358.27z"/>
					<path class="st29" d="M453.6,358.27c9.3,0.79,18.04,4.47,26.03,11.97c-10.26,6.5-19.39,13.45-27.13,20.96
						C440.18,378.66,439.78,363.87,453.6,358.27z"/>
					<path class="st29" d="M403.5,372.24v32.66c7.1-12,17.11-22.89,28.32-25.62C427.22,372.57,417.36,370.61,403.5,372.24z"/>
					<polygon class="st1" points="362.58,405.4 391.44,405.4 433.74,538.32 446.25,532.92 404.41,399.55 404.41,356.12 
						324.92,356.12 324.92,404.76 					"/>
					<g>
						<path class="st5" d="M368.06,439.75c0.06,60.94-45.8,110.35-102.31,110.35s-102.31-49.4-102.31-110.35
							s45.9-113.59,102.31-110.35C321.98,332.63,368,379.53,368.06,439.75z"/>
						<ellipse class="st13" cx="262.74" cy="442.85" rx="99.3" ry="107.6"/>
						<ellipse class="st5" cx="263.42" cy="442.12" rx="82.62" ry="92.44"/>
						<ellipse class="st12" cx="267.94" cy="441.21" rx="71.25" ry="82.94"/>
						<polygon class="st13" points="243.36,420.42 197.66,386.16 194.24,390.63 240.36,426.29 						"/>
						<polygon class="st13" points="284.95,420.42 330.65,386.16 334.06,390.63 287.94,426.29 						"/>
						<polygon class="st13" points="267.83,409.94 266.98,346.48 260.72,346.51 260.64,411.29 						"/>
						<path class="st32" d="M218.8,364.31c-53.75,37.45-52.59,103.59-12,145.13C168.35,453.28,175.12,404.26,218.8,364.31z"/>
					</g>
					<path class="st1" d="M391.13,356.12c3.13-15.34-1.3-27.46-13.43-27.27h-73.86v-17.47h77.43c22.02,5.05,25.42,22.93,23.14,44.74
						h-12.74"/>
					<path class="st33" d="M288.98,276.95c-6.59,12.16-11.79,23.98-11.23,34.43h97.08c5.39,0.59,9.93,2.32,11.78,6.23
						c8.05,21.13,37.99,19.37,32.34-3.29c-1.1-3.54-3.42-7.09-6.34-10.69c-10-9.11-29.79-9.31-42.57-10.14l-63.44-1.1l4-7.96
						C305.67,277.27,297.91,274.38,288.98,276.95z"/>
					<path class="st18" d="M268.36,165.56l2.06,2.43c46.01-47.36,102.24-71.36,164.75-64.62l-2.31-5.12
						C368.24,87.79,310.54,108.6,268.36,165.56z"/>
					<path class="st36" d="M416.47,75.63c3.88,3.64,12.61,12.92,16.87,23.78c-60.94-4.51-118.06,16.44-164.84,68.85
						c-16.93-15.61-38.46-8.87-63.03,12.61c-29.58,24.39-78.18,11.53-76.46-33.9c0.02-0.6,0.05-1.2,0.09-1.81
						c3.45-30.9-51.14-1.34-46.05-15.99c8-21.33,39.97-26.07,59.39-13.79c23.74,15.46-13.67,58.01,43.85,44.19
						c10.98-3.66,15.92-8.7,21.56-12.49c18.5-12.45,40.83-10.26,52.98-3.47C305.46,96.9,356.87,75.02,416.47,75.63z"/>
					<ellipse class="st25" cx="271.51" cy="183.54" rx="20.55" ry="17.98"/>
					<path class="st27" d="M268.86,172.74c-20.67,1.88-12.13,28.2,8.27,21.83"/>
				</g>
			</g>
		</g>
		<g>
			<path class="st12" d="M348.05,229.58c11.08-1.01,21.55-2.86,25.33-8.06l-25.33,1.56V229.58z"/>
			<path class="st22" d="M259.47,131.55C258.72,41.47,364.46,11.5,417.56,76.77L259.47,131.55z"/>
			
				<ellipse transform="matrix(0.4208 -0.9071 0.9071 0.4208 80.3624 396.9605)" class="st23" cx="351.05" cy="135.55" rx="88.1" ry="92.3"/>
			<path class="st24" d="M90.16,182.45c5.14,7.81,22.07-14.55,43.15-12.46L129,146.97C106.74,146.14,81.65,167.58,90.16,182.45z"/>
			
				<ellipse transform="matrix(0.3141 -0.9494 0.9494 0.3141 160.2926 520.729)" class="st25" cx="440.53" cy="149.43" rx="16.25" ry="12.84"/>
			
				<ellipse transform="matrix(0.9682 -0.2501 0.2501 0.9682 -27.4102 86.1535)" class="st1" cx="325.31" cy="150.94" rx="6.12" ry="8.57"/>
			
				<ellipse transform="matrix(0.9682 -0.2501 0.2501 0.9682 -20.1024 103.6752)" class="st1" cx="397.91" cy="130.94" rx="6.12" ry="8.57"/>
			<path class="st1" d="M346.04,166.99c4,40.17,63.94,30.14,43.57-11.42C379.48,167.08,360.22,171.76,346.04,166.99z"/>
			<path class="st12" d="M390.8,182.7c-5.65,9.01-17.23,12.48-27.73,8.22C364.39,177.1,381.02,174.08,390.8,182.7z"/>
			<path class="st27" d="M364.4,140.04c-1,3.63,1.36,7,5.53,10.23c6.62,4.34,1.88,8.41-6.44,9.87"/>
			<path class="st12" d="M268.36,165.56l2.06,2.43c46.01-47.36,102.24-71.36,164.75-64.62l-2.31-5.12
				C368.24,87.79,310.54,108.6,268.36,165.56z"/>
			<path class="st36" d="M416.47,75.63c3.88,3.64,12.61,12.92,16.87,23.78c-60.94-4.51-118.06,16.44-164.84,68.85
				c-16.93-15.61-38.46-8.87-63.03,12.61c-29.58,24.39-78.18,11.53-76.46-33.9c0.02-0.6,0.05-1.2,0.09-1.81
				c3.45-30.9-51.14-1.34-46.05-15.99c8-21.33,39.97-26.07,59.39-13.79c23.74,15.46-13.67,58.01,43.85,44.19
				c10.98-3.66,15.92-8.7,21.56-12.49c18.5-12.45,40.83-10.26,52.98-3.47C305.46,96.9,356.87,75.02,416.47,75.63z"/>
			<ellipse class="st25" cx="271.51" cy="183.54" rx="20.55" ry="17.98"/>
			<path class="st27" d="M268.86,172.74c-20.67,1.88-12.13,28.2,8.27,21.83"/>
			<path class="st22" d="M461.46,221.64L461.46,221.64c0-0.12,0.01-0.23,0.01-0.35c0-4.75-4.01-8.87-8.95-8.87
				c-3.61,0-6.73,2.98-8.14,5.94h0c-1.41-2.96-4.52-5.94-8.14-5.94c-4.94,0-8.95,4.12-8.95,8.87c0,0.12,0,0.24,0.01,0.35h0
				c0,0-0.51,5.64,5.78,11.81c2.86,2.86,6.05,5.58,11.31,9.85c5.26-4.27,8.45-6.99,11.31-9.85
				C461.96,227.28,461.46,221.64,461.46,221.64z"/>
			<path class="st12" d="M348.05,232.76l-0.48,1.85c-8.91-0.59-24.74,4.5-32.6,9.19C322.97,237.91,337.84,232.04,348.05,232.76z"/>
			<path class="st12" d="M378.17,232.76l0.86,2.29c8.08,0.56,26.03,5.53,34.32,10.41C407.84,241.64,392.46,234.65,378.17,232.76z"/>
			<g>
				<path class="st1" d="M212.66,238.42h-32.81c-3.64,0-6.59-2.95-6.59-6.59v-3.94c0-3.64,2.95-6.59,6.59-6.59h32.81
					c3.64,0,6.59,2.95,6.59,6.59v3.94C219.26,235.47,216.3,238.42,212.66,238.42z"/>
			</g>
		</g>
	</g>
</g>
</svg>
